# Blender 4.1.1
# www.blender.org
o Cube.007
v 0.842176 -0.413365 0.237983
v 0.842176 -1.013365 0.237983
v 0.610824 -0.413365 0.791587
v 0.610824 -1.013365 0.791587
v 0.288573 -0.413365 0.006632
v 0.288573 -1.013365 0.006632
v 0.057221 -0.413365 0.560235
v 0.057221 -1.013365 0.560235
vn -0.0000 1.0000 -0.0000
vn -0.0000 -1.0000 -0.0000
vn -0.3856 -0.0000 0.9227
vn 0.9227 -0.0000 0.3856
vn 0.3856 -0.0000 -0.9227
vn -0.9227 -0.0000 -0.3856
vt 0.625000 0.500000
vt 0.875000 0.750000
vt 0.625000 0.750000
vt 0.375000 0.500000
vt 0.125000 0.750000
vt 0.125000 0.500000
vt 0.375000 1.000000
vt 0.375000 0.750000
vt 0.625000 0.250000
vt 0.375000 0.250000
vt 0.625000 0.000000
vt 0.375000 0.000000
vt 0.875000 0.500000
vt 0.625000 1.000000
s 0
f 1/1/1 7/2/1 3/3/1
f 2/4/2 8/5/2 6/6/2
f 3/3/3 8/7/3 4/8/3
f 1/1/4 4/8/4 2/4/4
f 5/9/5 2/4/5 6/10/5
f 7/11/6 6/10/6 8/12/6
f 1/1/1 5/13/1 7/2/1
f 2/4/2 4/8/2 8/5/2
f 3/3/3 7/14/3 8/7/3
f 1/1/4 3/3/4 4/8/4
f 5/9/5 1/1/5 2/4/5
f 7/11/6 5/9/6 6/10/6
