# Blender 4.1.1
# www.blender.org
mtllib cubes.mtl
o Cube.006
v 0.142351 -0.399684 0.058556
v 0.142351 -0.999684 0.058556
v -0.062053 -0.399684 0.622665
v -0.062053 -0.999684 0.622665
v -0.421758 -0.399684 -0.145848
v -0.421758 -0.999684 -0.145848
v -0.626162 -0.399684 0.418261
v -0.626162 -0.999684 0.418261
v 0.325593 -0.999684 0.051044
v 0.325593 -0.399684 0.051044
v 0.129812 -0.999684 -0.516116
v 0.129812 -0.399684 -0.516116
v 0.892752 -0.999684 -0.144737
v 0.892752 -0.399684 -0.144737
v 0.696972 -0.999684 -0.711897
v 0.696972 -0.399684 -0.711897
vn -0.0000 1.0000 -0.0000
vn -0.0000 -1.0000 -0.0000
vn -0.3407 -0.0000 0.9402
vn 0.9402 -0.0000 0.3407
vn 0.3407 -0.0000 -0.9402
vn -0.9402 -0.0000 -0.3407
vn -0.9453 -0.0000 0.3263
vn -0.3263 -0.0000 -0.9453
vn 0.9453 -0.0000 -0.3263
vn 0.3263 -0.0000 0.9453
vt 0.625000 0.500000
vt 0.875000 0.750000
vt 0.625000 0.750000
vt 0.375000 0.500000
vt 0.125000 0.750000
vt 0.125000 0.500000
vt 0.375000 1.000000
vt 0.375000 0.750000
vt 0.625000 0.250000
vt 0.375000 0.250000
vt 0.625000 0.000000
vt 0.375000 0.000000
vt 0.875000 0.500000
vt 0.625000 1.000000
s 0
f 1/1/1 7/2/1 3/3/1
f 2/4/2 8/5/2 6/6/2
f 3/3/3 8/7/3 4/8/3
f 1/1/4 4/8/4 2/4/4
f 5/9/5 2/4/5 6/10/5
f 7/11/6 6/10/6 8/12/6
f 10/11/7 11/10/7 9/12/7
f 12/9/8 15/4/8 11/10/8
f 16/1/9 13/8/9 15/4/9
f 14/3/10 9/7/10 13/8/10
f 15/4/2 9/5/2 11/6/2
f 12/13/1 14/3/1 16/1/1
f 1/1/1 5/13/1 7/2/1
f 2/4/2 4/8/2 8/5/2
f 3/3/3 7/14/3 8/7/3
f 1/1/4 3/3/4 4/8/4
f 5/9/5 1/1/5 2/4/5
f 7/11/6 5/9/6 6/10/6
f 10/11/7 12/9/7 11/10/7
f 12/9/8 16/1/8 15/4/8
f 16/1/9 14/3/9 13/8/9
f 14/3/10 10/14/10 9/7/10
f 15/4/2 13/8/2 9/5/2
f 12/13/1 10/2/1 14/3/1
