# Blender 3.4.0
# www.blender.org
o Plane
v -1.000000 0.000000 1.000000
v 1.000000 0.000000 1.000000
v -1.000000 0.000000 -1.000000
v 1.000000 0.000000 -1.000000
v -1.000000 2.000000 1.000000
v 1.000000 2.000000 1.000000
v -1.000000 2.000000 -1.000000
v 1.000000 2.000000 -1.000000
vn -0.0000 1.0000 -0.0000
vn -0.0000 -1.0000 -0.0000
vn -1.0000 -0.0000 -0.0000
vn 1.0000 -0.0000 -0.0000
vn -0.0000 -0.0000 1.0000
vt 0.000000 0.000000
vt 1.000000 0.000000
vt 0.000000 1.000000
vt 1.000000 1.000000
vt 0.000000 0.000000
vt 1.000000 0.000000
vt 0.000000 1.000000
vt 1.000000 1.000000
s 0
f 2/2/1 3/3/1 1/1/1
f 7/7/2 6/6/2 5/5/2
f 6/6/3 4/4/3 2/2/3
f 7/7/4 1/1/4 3/3/4
f 8/8/5 3/3/5 4/4/5
f 2/2/1 4/4/1 3/3/1
f 7/7/2 8/8/2 6/6/2
f 6/6/3 8/8/3 4/4/3
f 7/7/4 5/5/4 1/1/4
f 8/8/5 7/7/5 3/3/5
